<svg width="17" height="28" fill="none" xmlns="http://www.w3.org/2000/svg"><path fill-rule="evenodd" clip-rule="evenodd" d="M9.2 22.4h1.6a6.3 6.3 0 0 1-1.6 3v-3Zm-3 0h1.6v3a6.3 6.3 0 0 1-1.6-3Zm4.5-3.2L11 21H9.2c0-1 .7-1.6 1.5-1.8Zm-4.4 0c.8.2 1.5.9 1.5 1.8H6l.3-1.8Zm8.5-2.4h.8V21h-3.2c0-.7-.1-1.4-.3-2l.7-.2c1-.3 1.7-1 2-2Zm-13.4 0h.8c.3 1 1 1.7 2 2l.7.1-.3 2H1.4v-4.1Zm7.1-2.3a16 16 0 0 0 1.6 3.5c-.7.2-1.2.5-1.6 1-.4-.5-1-.8-1.6-1a16 16 0 0 0 1.6-3.5Zm7-9.5v10.4h-.7c-.2-.8-.8-1.5-1.5-1.8l.6-4.7c.2-1.5.8-2.8 1.7-3.9Zm-14 0C2.2 6 2.8 7.4 3 9l.6 4.7c-.7.3-1.3 1-1.5 1.8h-.8V5Zm7-5c-.7.7-1 1.7-1 2.8 0 2.3.3 4.6.3 7a15.6 15.6 0 0 1-2.3 7.8l-.8-.2c-.8-.1-1.3-.8-1.1-1.6.1-.7.7-1.1 1.4-1.1h.3L4.6 9A8.7 8.7 0 0 0 0 2v20.4h4.7a7.7 7.7 0 0 0 3 4.7c.3.2.6.5.8.9.2-.4.5-.7.9-1a7.7 7.7 0 0 0 2.9-4.6H17V2a9 9 0 0 0-4.6 7l-.7 5.7h.3c.7 0 1.3.4 1.4 1.1.2.8-.3 1.5-1 1.6l-1 .2-.8-1.6c-.8-2-1.4-4-1.4-6.2 0-2.4.3-4.7.4-7 0-1-.4-2-1.1-2.8Z" fill="#FDC500"/></svg>